<?xml version="1.0" encoding="UTF-8"?>
<svg id="Layer_1" data-name="Layer 1" xmlns="http://www.w3.org/2000/svg" viewBox="0 0 2217.09 920.35">
  <defs>
    <style>
      .cls-1, .cls-2 {
        fill: #0d2a4a;
      }

      .cls-2 {
        font-family: Poppins-Regular, Poppins;
        font-size: 80.05px;
      }

      .cls-3 {
        fill: #ad8c53;
      }

      .cls-4 {
        font-family: Poppins-Bold, Poppins;
        font-size: 274.22px;
        font-weight: 700;
        letter-spacing: .1em;
      }

      .cls-5 {
        fill: #c8a45d;
      }
    </style>
  </defs>
  <g>
    <path class="cls-1" d="M224.69,631.49c-19.43-33.38-32.78-66.03-35.58-103.73l-.24-191.2,59.54.13.04,228.23c8.49,25.04,20.07,47.22,38.35,67.86l.08-296.2,58.75-.26v357.16s38.52,29.93,38.52,29.93l.03-386.69,59.24.07-.07,485.57c-87.02-43.68-168.23-108.14-218.65-190.86Z"/>
    <path class="cls-1" d="M210.95,235.21l-1.41,17.61c84.97.36,165.78-16.93,244.74-47.48l-.11,96.96-298.19-.02.07-110.19,102.73-26.5c82.6-21.54,162.63-46,243.61-74.47,90.74,35.01,180.19,62.88,275.97,88.3l-59.29,41.05c-51.09-12.02-99.43-26.58-148.15-44.48l-68.94-25.6-74.3,26.03c-71.06,24.89-140.86,44.25-216.74,58.78Z"/>
    <path class="cls-5" d="M833.12,413.2l-142.64,15.12-14.02-133.73,146.66-102.57c7.57,56.62,11.74,109.6,12.58,164.77l-2.57,56.4Z"/>
    <path class="cls-3" d="M726.03,684.54l-216.35,18.85,75.08-101.32,208.15-17.56c-17.36,37.72-38.87,67.95-66.89,100.03Z"/>
    <path class="cls-3" d="M806.8,552.33l-199.97,17.12,77.61-109.68,145.6-15.01c-4.97,37.32-12.56,70.85-23.24,107.57Z"/>
    <path class="cls-5" d="M479.16,687.92l-1.04-133.67c-.26-33.5,7.56-64.58,25.66-92.67,14.11-22.19,29.79-41.9,49.89-60.75l17.79,163.92-92.29,123.17Z"/>
    <path class="cls-3" d="M609.29,774.21c-41.92,23.93-84.79,43.08-130.82,59.67l-.05-96.49,206.61-17.31c-23.36,21.95-48.82,37.52-75.74,54.13Z"/>
    <path class="cls-5" d="M596.3,529.7l-16.53-154.02c21.5-20.57,42.41-38.89,68.73-59.08l12.84,123.99-65.04,89.11Z"/>
  </g>
  <text class="cls-4" transform="translate(934.19 464.87)"><tspan class="cls-1" x="0" y="0">LEAF-</tspan><tspan class="cls-5" x="927.41" y="0">C</tspan></text>
  <text class="cls-2" transform="translate(948.58 598.78)"><tspan x="0" y="0">LAW ENFORCEMENT AGAINST</tspan></text>
  <text class="cls-2" transform="translate(1149.8306 705.4887)"><tspan x="0" y="0">FINANCIAL CRIMES</tspan></text>
  <rect class="cls-5" x="954.75" y="679.58" width="146.87" height="4.87"/>
  <rect class="cls-5" x="1906.48" y="679.58" width="146.87" height="4.87"/>
</svg>